<?xml version="1.0" standalone="no"?>
<!DOCTYPE svg PUBLIC "-//W3C//DTD SVG 20010904//EN" "http://www.w3.org/TR/2001/REC-SVG-20010904/DTD/svg10.dtd">
<svg version="1.0" xmlns="http://www.w3.org/2000/svg" width="40" height="16"
     viewBox="0 0 208.0 78.0" preserveAspectRatio="xMidYMid meet">
    <metadata>
        Created by potrace 1.10, written by Peter Selinger 2001-2011
    </metadata>
    <g transform="translate(0.000000,78.000000) scale(0.100000,-0.100000)" fill="#000000" stroke="none">
        <path d="M493 763 c-56 -19 -134 -105 -165 -181 -35 -88 -30 -221 15 -362 6
      -19 15 -41 21 -48 20 -27 16 0 -10 75 -19 56 -28 105 -32 175 -5 95 -4 99 30
      170 47 97 92 147 143 158 49 11 70 -4 32 -21 -15 -7 -27 -16 -27 -21 0 -13 13
      -10 45 12 43 28 48 25 41 -22 -7 -53 8 -30 18 26 l7 39 -30 -6 c-23 -5 -31 -3
      -31 8 0 17 -1 17 -57 -2z"/>
        <path d="M624 668 c2 -24 7 -53 11 -65 5 -17 1 -24 -22 -37 -25 -14 -26 -15
      -6 -16 37 0 70 48 43 65 -5 3 -10 24 -10 45 0 21 -4 41 -9 45 -6 3 -8 -12 -7
      -37z"/>
        <path d="M110 585 c-13 -14 -29 -25 -37 -25 -7 0 -16 -12 -19 -26 -4 -17 -9
      -22 -14 -14 -6 9 -11 6 -20 -10 -20 -37 -8 -166 19 -219 24 -46 120 -155 129
      -146 3 3 12 -1 21 -9 9 -7 29 -16 46 -19 l30 -5 -30 21 c-40 28 -97 88 -91 95
      3 2 31 -18 61 -47 31 -28 62 -51 70 -51 7 0 20 -11 29 -25 11 -17 13 -25 5
      -25 -7 0 -9 -3 -6 -6 4 -4 13 -1 21 5 11 9 20 10 38 1 22 -11 22 -10 4 4 -11
      9 -29 16 -40 16 -21 1 -21 1 -2 15 24 18 40 20 30 3 -5 -7 -3 -8 5 -4 17 11 5
      20 -29 22 -41 2 -125 67 -166 128 -34 51 -43 73 -24 61 12 -7 -6 43 -21 62 -6
      7 -8 17 -4 24 4 6 2 15 -4 19 -16 9 2 82 24 100 8 7 15 17 15 23 0 6 8 19 18
      30 16 19 16 20 -5 8 -29 -15 -34 -14 -27 4 9 22 1 19 -26 -10z m-35 -192 c10
      -43 22 -86 27 -95 5 -11 5 -18 -1 -18 -11 0 -47 71 -56 113 -7 24 0 77 9 77 2
      0 12 -35 21 -77z"/>
        <path d="M500 560 c0 -5 6 -10 13 -10 8 0 32 -13 54 -29 46 -33 81 -98 112
      -207 23 -82 28 -59 5 29 -21 87 -61 155 -112 194 -43 33 -72 42 -72 23z"/>
        <path d="M941 424 c-13 -69 -21 -127 -18 -130 13 -14 37 33 43 86 4 33 10 63
      14 65 5 3 19 -30 33 -73 14 -42 28 -77 32 -77 4 0 18 36 32 79 28 89 37 87 48
      -6 5 -43 12 -61 26 -69 24 -13 24 -13 -6 127 -14 64 -25 117 -25 120 0 2 -4 4
      -8 4 -5 0 -21 -41 -37 -90 -15 -50 -29 -89 -31 -87 -3 2 -17 42 -32 87 -16 46
      -33 85 -38 87 -5 2 -20 -54 -33 -123z"/>
        <path d="M1660 420 l0 -130 40 0 c87 0 140 43 148 118 8 91 -42 142 -143 142
      l-45 0 0 -130z m133 69 c10 -13 17 -38 17 -65 0 -52 -29 -89 -77 -99 l-33 -7
      0 103 0 102 38 -6 c20 -4 45 -16 55 -28z"/>
        <path d="M1890 419 l0 -131 64 4 c77 5 106 25 106 74 0 32 -21 64 -42 64 -7 0
      -2 10 10 23 29 31 28 51 -4 76 -20 15 -41 21 -80 21 l-54 0 0 -131z m108 89
      c13 -13 16 -44 5 -51 -5 -3 -23 -8 -40 -12 -33 -7 -33 -7 -33 34 0 38 2 41 28
      41 15 0 33 -5 40 -12z m16 -110 c9 -12 16 -26 16 -30 0 -19 -43 -48 -70 -48
      -29 0 -30 1 -30 50 l0 50 34 0 c25 0 39 -7 50 -22z"/>
        <path d="M1494 497 c-47 -24 -59 -82 -23 -115 17 -17 18 -20 5 -25 -19 -8 -21
      -46 -3 -49 6 0 32 -1 57 -2 38 -1 45 -4 45 -21 0 -16 -8 -21 -38 -23 -21 -2
      -44 2 -51 7 -10 8 -17 7 -26 -4 -16 -19 -14 -22 36 -33 57 -13 106 4 119 42 8
      24 6 31 -15 48 -19 16 -33 18 -66 13 -25 -3 -45 -2 -49 4 -5 10 4 13 72 27 36
      7 59 50 46 84 -8 20 -8 31 0 39 13 13 15 12 -44 16 -25 1 -55 -2 -65 -8z m57
      -27 c23 -13 25 -53 3 -74 -20 -21 -30 -20 -54 4 -24 24 -24 29 -4 58 17 25 27
      27 55 12z"/>
        <path d="M1249 471 c-23 -24 -29 -38 -29 -75 0 -64 33 -101 90 -101 57 0 90
      37 90 101 0 57 -40 104 -90 104 -22 0 -41 -9 -61 -29z m88 -9 c18 -11 32 -57
      26 -83 -21 -85 -103 -74 -103 13 0 60 38 95 77 70z"/>
        <path d="M920 160 c0 -22 5 -30 18 -30 14 0 15 2 2 10 -13 9 -13 11 0 20 13 9
      13 10 0 10 -13 0 -13 1 0 10 13 8 12 10 -2 10 -13 0 -18 -8 -18 -30z"/>
        <path d="M1354 175 c-4 -8 -3 -23 0 -32 6 -14 9 -15 15 -4 7 11 9 11 14 0 3
      -8 6 1 6 19 1 34 -24 46 -35 17z"/>
        <path d="M1510 175 c-14 -17 -5 -48 13 -43 14 5 23 58 9 58 -5 0 -15 -7 -22
      -15z"/>
        <path d="M1826 174 c-7 -19 10 -44 30 -44 8 0 14 8 14 18 0 13 -2 14 -9 3 -5
      -7 -14 -10 -20 -7 -18 11 -13 26 12 36 22 9 22 9 1 9 -12 1 -25 -6 -28 -15z"/>
        <path d="M973 173 c-15 -6 -17 -33 -3 -33 6 0 10 6 11 13 0 6 4 3 9 -8 8 -19
      9 -19 9 2 1 24 -8 33 -26 26z"/>
        <path d="M1143 173 c-7 -3 -13 -16 -13 -29 0 -22 3 -23 20 -14 31 16 24 54 -7
      43z"/>
        <path d="M1291 171 c-18 -12 -7 -41 16 -41 14 0 15 2 4 9 -11 7 -11 9 0 14 10
      3 11 8 4 15 -6 7 -16 8 -24 3z"/>
        <path d="M1413 169 c-15 -15 -5 -39 16 -39 13 0 13 2 2 9 -11 7 -11 9 0 14 10
      3 11 8 4 16 -8 8 -14 8 -22 0z"/>
        <path d="M1623 164 c-8 -21 13 -42 28 -27 13 13 5 43 -11 43 -6 0 -13 -7 -17
      -16z"/>
        <path d="M1683 173 c-7 -3 -13 -16 -13 -29 0 -22 3 -23 20 -14 31 16 24 54 -7
      43z"/>
        <path d="M1731 166 c-15 -18 -6 -36 17 -36 13 0 14 2 3 9 -11 7 -11 9 0 14 10
      3 11 8 3 16 -8 9 -14 8 -23 -3z"/>
        <path d="M1783 173 c-7 -3 -12 -14 -12 -26 1 -17 2 -18 6 -4 2 9 8 17 13 17 5
      0 11 -8 13 -17 4 -14 5 -13 6 4 1 24 -8 33 -26 26z"/>
        <path d="M1896 172 c2 -3 -1 -11 -7 -18 -13 -16 8 -31 24 -15 8 8 7 15 -4 25
      -9 7 -14 11 -13 8z"/>
    </g>
</svg>