<?xml version="1.0" encoding="UTF-8"?>
<svg version="1.1" xmlns="http://www.w3.org/2000/svg" width="16" height="16"
     viewBox="0 0 260.0 260.0"
>
    <path
            d="M0 0 C1.6155376 -0.00599127 3.23107236 -0.01279819 4.84660339 -0.02035522 C9.21877936 -0.03796386 13.59087694 -0.0427085 17.96308494 -0.0439868 C20.7003464 -0.04541214 23.43758818 -0.04968904 26.17484474 -0.05498123 C35.74059938 -0.07346621 45.30629841 -0.08165398 54.87207031 -0.08007812 C63.76186283 -0.07887792 72.65141211 -0.09996046 81.54114312 -0.13156545 C89.19495897 -0.15779812 96.84869573 -0.16844246 104.50255615 -0.16716731 C109.06423209 -0.16665962 113.62569181 -0.17223472 118.18732262 -0.19352341 C122.48272382 -0.21302345 126.77770518 -0.21295074 131.07312202 -0.19849014 C132.63991796 -0.19641527 134.206741 -0.20102306 135.77349091 -0.21321106 C152.51566493 -0.33490212 164.6081368 4.11780738 178.24731445 13.47802734 C191.21962833 26.45034123 197.2851966 40.53639394 197.35308838 58.67605591 C197.3523895 60.19427502 197.35146652 61.71249404 197.3503418 63.23071289 C197.35633307 64.84625049 197.36313999 66.46178525 197.37069702 68.07731628 C197.38830566 72.44949225 197.39305029 76.82158983 197.39432859 81.19379783 C197.39575394 83.93105929 197.40003084 86.66830107 197.40532303 89.40555763 C197.42380801 98.97131227 197.43199577 108.5370113 197.43041992 118.1027832 C197.42921972 126.99257572 197.45030226 135.882125 197.48190725 144.77185601 C197.50813991 152.42567186 197.51878426 160.07940862 197.5175091 167.73326904 C197.51700142 172.29494498 197.52257652 176.8564047 197.5438652 181.41803551 C197.56336525 185.71343671 197.56329254 190.00841807 197.54883194 194.30383492 C197.54675707 195.87063085 197.55136486 197.43745389 197.56355286 199.0042038 C197.68524392 215.74637782 193.23253441 227.83884969 183.87231445 241.47802734 C170.90000057 254.45034123 156.81394786 260.51590949 138.67428589 260.58380127 C137.15606678 260.58310239 135.63784776 260.58217941 134.11962891 260.58105469 C132.5040913 260.58704596 130.88855655 260.59385288 129.27302551 260.60140991 C124.90084955 260.61901855 120.52875197 260.62376319 116.15654397 260.62504148 C113.41928251 260.62646683 110.68204072 260.63074373 107.94478416 260.63603592 C98.37902953 260.6545209 88.8133305 260.66270866 79.24755859 260.66113281 C70.35776607 260.65993261 61.4682168 260.68101515 52.57848579 260.71262014 C44.92466993 260.7388528 37.27093317 260.74949715 29.61707276 260.74822199 C25.05539682 260.74771431 20.4939371 260.75328941 15.93230629 260.77457809 C11.63690508 260.79407814 7.34192373 260.79400543 3.04650688 260.77954483 C1.47971094 260.77746996 -0.08711209 260.78207775 -1.653862 260.79426575 C-18.39603602 260.91595681 -30.48850789 256.46324731 -44.12768555 247.10302734 C-57.09999943 234.13071346 -63.16556769 220.04466075 -63.23345947 201.90499878 C-63.2327606 200.38677967 -63.23183762 198.86856065 -63.23071289 197.3503418 C-63.23670416 195.73480419 -63.24351108 194.11926944 -63.25106812 192.5037384 C-63.26867675 188.13156244 -63.27342139 183.75946486 -63.27469969 179.38725686 C-63.27612503 176.6499954 -63.28040193 173.91275361 -63.28569412 171.17549706 C-63.3041791 161.60974242 -63.31236687 152.04404339 -63.31079102 142.47827148 C-63.30959081 133.58847896 -63.33067335 124.69892969 -63.36227834 115.80919868 C-63.38851101 108.15538282 -63.39915535 100.50164606 -63.3978802 92.84778565 C-63.39737251 88.28610971 -63.40294761 83.72464999 -63.4242363 79.16301918 C-63.44373634 74.86761797 -63.44366363 70.57263662 -63.42920303 66.27721977 C-63.42712816 64.71042384 -63.43173595 63.1436008 -63.44392395 61.57685089 C-63.56561502 44.83467687 -59.11290551 32.742205 -49.75268555 19.10302734 C-35.10189352 4.45223532 -20.08373505 -0.01487843 0 0 Z "
            fill="#00C3B8" transform="translate(62.940185546875,-0.29052734375)"/>
    <path
            d="M0 0 C1.25296875 -0.02900391 1.25296875 -0.02900391 2.53125 -0.05859375 C10.58076224 1.28652211 17.8861348 6.18868145 24.875 10.1875 C25.85090088 10.7431665 26.82680176 11.29883301 27.83227539 11.87133789 C35.30408182 16.14337836 42.7463347 20.46678803 50.16412354 24.83190918 C51.89557926 25.85034244 53.62916111 26.86515831 55.36279297 27.87988281 C71.58042734 37.47971134 71.58042734 37.47971134 75.875 43.4375 C76.56722656 44.365625 76.56722656 44.365625 77.2734375 45.3125 C80.15581659 50.30617588 80.75585842 54.96141506 80.79052734 60.66113281 C80.79724457 61.3579567 80.80396179 62.05478058 80.81088257 62.77272034 C80.82978181 65.06209573 80.83378294 67.35117658 80.8359375 69.640625 C80.84237219 71.24477251 80.84910104 72.84891886 80.85610962 74.45306396 C80.86806304 77.81199867 80.87179256 81.17083069 80.87060547 84.52978516 C80.87040265 88.81113313 80.89767432 93.09181455 80.93214989 97.37300491 C80.95450977 100.68639076 80.95844021 103.99961867 80.95738602 107.3130722 C80.95972949 108.89016765 80.96848154 110.4672683 80.98405075 112.04428864 C81.08821834 123.68753049 80.11256299 133.6495005 71.74951172 142.50292969 C67.00149658 146.5862021 61.50367067 149.5183375 56.0625 152.5625 C54.77359009 153.29762946 53.48551426 154.0342231 52.19824219 154.7722168 C49.57923927 156.27197985 46.95631211 157.76451884 44.33056641 159.25244141 C40.72297545 161.30255218 37.14576477 163.39940291 33.57421875 165.51171875 C32.50421631 166.14384277 31.43421387 166.7759668 30.33178711 167.42724609 C28.33791539 168.60654153 26.34516233 169.78773123 24.35375977 170.97119141 C18.86851866 174.19080005 13.35586036 176.96180616 7.5 179.4375 C6.84 179.7675 6.18 180.0975 5.5 180.4375 C3.81707913 180.58709297 2.12681577 180.65898834 0.4375 180.6875 C-0.91021484 180.72617187 -0.91021484 180.72617187 -2.28515625 180.765625 C-11.64823251 179.80997688 -19.04942006 175.01352598 -26.9375 170.1875 C-29.32711793 168.74095285 -31.7201467 167.30009486 -34.11328125 165.859375 C-34.72093323 165.4924353 -35.32858521 165.12549561 -35.95465088 164.74743652 C-40.17621848 162.20643948 -44.43702357 159.74542158 -48.73046875 157.328125 C-49.31338181 156.99850769 -49.89629486 156.66889038 -50.49687195 156.32928467 C-53.26942993 154.76195539 -56.04659437 153.20436085 -58.83374023 151.66308594 C-68.81612372 146.01367554 -77.46677316 140.05611372 -81.03094482 128.75382996 C-81.65966189 125.64904345 -81.64372956 122.68512265 -81.66113281 119.5168457 C-81.66858017 118.48426888 -81.66858017 118.48426888 -81.67617798 117.43083191 C-81.69075539 115.15830474 -81.69759547 112.88584746 -81.703125 110.61328125 C-81.70888167 109.02630106 -81.71463933 107.43932088 -81.72039795 105.8523407 C-81.73089647 102.52435992 -81.73674613 99.1964032 -81.74023438 95.8684082 C-81.74570577 91.62290975 -81.76970942 87.37773415 -81.79820633 83.13233662 C-81.8169186 79.85246379 -81.82204293 76.57266726 -81.82357025 73.29274559 C-81.82657978 71.72878448 -81.83455028 70.16482416 -81.84775543 68.60091591 C-81.94574676 56.09967523 -81.17930979 47.20462935 -72.19433594 37.82128906 C-67.47259779 33.64377445 -62.16361113 30.77067897 -56.625 27.8125 C-54.77238128 26.79636322 -52.92357477 25.77351837 -51.07496643 24.75010681 C-49.80550398 24.04766718 -48.53485419 23.34736921 -47.26304626 22.64918518 C-42.77705606 20.17848542 -38.36451202 17.6040171 -33.98046875 14.95703125 C-33.37444824 14.59194458 -32.76842773 14.22685791 -32.14404297 13.85070801 C-29.2469726 12.10273857 -26.35624484 10.34543287 -23.47119141 8.57763672 C-16.07678166 4.12368069 -8.85072067 0.01365852 0 0 Z "
            fill="#FCFEFE" transform="translate(130.5,39.5625)"/>
    <path
            d="M0 0 C1 1 1 1 1.125 3.75 C1.01407566 6.6340328 0.65915423 9.19859453 0 12 C0.72703125 12.49306641 0.72703125 12.49306641 1.46875 12.99609375 C10.66285523 19.52037227 19.24868125 28.19112809 21.5234375 39.6328125 C21.76865342 41.7469714 21.89713652 43.8741548 22 46 C22.59167969 46.15855469 23.18335938 46.31710938 23.79296875 46.48046875 C29.00165792 48.01843407 32.66997593 49.44896711 36 54 C35.87165745 56.31016597 35.63394255 57.36605745 34 59 C30.50096659 58.94962125 27.01141122 58.8017685 23.515625 58.64453125 C19.39465418 59.06120719 18.0117177 60.27460758 15 63 C12.25 63.3125 12.25 63.3125 10 63 C9 62 9 62 8.6875 59.25 C9 56 9 56 11.0625 53.4375 C13.2062283 51.20651353 13.2062283 51.20651353 13.1875 48.625 C10.50560403 42.69659838 5.17100421 38.40584809 -0.66796875 35.7109375 C-5.32292222 34.29183946 -10.16177277 34.16127424 -15 34 C-15 35.65 -15 37.3 -15 39 C-17.85324437 40.42662219 -19.83454549 40.31033868 -23 40 C-23.845625 39.319375 -24.69125 38.63875 -25.5625 37.9375 C-27.78591181 35.71055533 -27.78591181 35.71055533 -30.30859375 36.21875 C-34.19694352 37.34744369 -37.66275107 39.14740327 -41.28125 40.94140625 C-44.09954553 42.03875982 -46.00714493 42.28980111 -49 42 C-50 41 -50 41 -50.3125 38.5625 C-49.5493757 29.86288298 -45.46208279 22.7648253 -39 17 C-32.61933112 12.17169421 -25.73087995 9.80047854 -18.19921875 7.30078125 C-14.50968719 5.80064205 -12.37041308 3.92655893 -9.59375 1.1640625 C-6.55297455 -1.05689604 -3.6065911 -0.43527824 0 0 Z "
            fill="#04BEB2" transform="translate(137,65)"/>
    <path
            d="M0 0 C2.35125 -0.061875 4.7025 -0.12375 7.125 -0.1875 C7.85348145 -0.21481201 8.58196289 -0.24212402 9.33251953 -0.27026367 C13.99914009 -0.32911853 17.04451125 0.56902254 21 3 C24.02463566 6.22627804 24.23610751 9.1723431 24.375 13.4375 C24.22804427 17.98700449 23.80196755 21.26404327 21 25 C16.36381288 27.90451604 12.46425945 28.38767794 7.125 28.1875 C4.77375 28.125625 2.4225 28.06375 0 28 C0 18.76 0 9.52 0 0 Z "
            fill="#10C1B7" transform="translate(156,141)"/>
    <path
            d="M0 0 C14 0 14 0 19 2 C20.48337286 4.96674571 20.05659437 7.71752666 20 11 C20 12.32 20 13.64 20 15 C20.66 15.66 21.32 16.32 22 17 C22.4375 19.8125 22.4375 19.8125 22 23 C19.99156085 25.72290367 18.42913404 27.71473016 14.99536133 28.40014648 C12.70118929 28.49195406 10.4809945 28.43649047 8.1875 28.3125 C4.1346875 28.1578125 4.1346875 28.1578125 0 28 C0 18.76 0 9.52 0 0 Z "
            fill="#08C1B7" transform="translate(184,141)"/>
    <path
            d="M0 0 C9.19230769 0 9.19230769 0 13 3 C14.97482454 6.94964909 14.4261831 11.69364239 14 16 C12.625 18.6875 12.625 18.6875 10 20 C6.7 20 3.4 20 0 20 C0 13.4 0 6.8 0 0 Z "
            fill="#FBFEFD" transform="translate(161,145)"/>
    <path
            d="M0 0 C2.1796875 0.94140625 2.1796875 0.94140625 4 3 C4.64637996 6.05162221 4.69705731 9.07591381 4.75 12.1875 C4.77964844 13.03248047 4.80929688 13.87746094 4.83984375 14.74804688 C4.9104699 16.83151822 4.95750795 18.91576506 5 21 C4.01 21 3.02 21 2 21 C1.67 20.34 1.34 19.68 1 19 C0.46375 19.33 -0.0725 19.66 -0.625 20 C-3.6042758 21.25443192 -5.79316197 21.27292239 -9 21 C-9.99 20.34 -10.98 19.68 -12 19 C-12.65590838 13.86205102 -12.65590838 13.86205102 -10.76953125 11.3828125 C-8.62810174 9.70937752 -6.97109952 9.31339556 -4.3125 8.8125 C-3.50425781 8.65394531 -2.69601563 8.49539062 -1.86328125 8.33203125 C-0.94095703 8.16767578 -0.94095703 8.16767578 0 8 C0 6.68 0 5.36 0 4 C-3.41642759 3.74984127 -3.41642759 3.74984127 -7 4 C-7.99 5.485 -7.99 5.485 -9 7 C-9.99 6.67 -10.98 6.34 -12 6 C-8.66796342 0.09320787 -6.85133085 -0.47250558 0 0 Z "
            fill="#16BFB3" transform="translate(93,148)"/>
    <path
            d="M0 0 C2.68827741 1.69243742 4.84682774 3.67374315 7 6 C6.67 6.99 6.34 7.98 6 9 C3 8 3 8 1.25 5.9375 C-0.95661939 3.68548279 -0.95661939 3.68548279 -4.5 3.5 C-8.49445751 4.07063679 -9.59136668 4.85024874 -12 8 C-13.53597454 11.07194908 -13.2265038 13.60244293 -13 17 C-11.41772398 21.30843924 -11.41772398 21.30843924 -8 24 C-6.35643193 24.09585131 -4.70885358 24.12983511 -3.0625 24.125 C-2.18722656 24.12757813 -1.31195313 24.13015625 -0.41015625 24.1328125 C2.14459056 24.09822003 2.14459056 24.09822003 5 23 C5 20.69 5 18.38 5 16 C2.03 16 -0.94 16 -4 16 C-4 15.34 -4 14.68 -4 14 C-0.37 14 3.26 14 7 14 C7.60550459 24.29357798 7.60550459 24.29357798 5.125 27.1875 C-0.36915296 28.61597977 -5.64721357 29.00118572 -10.9375 26.75 C-14.56563641 23.67158123 -16.67658033 20.78352991 -17.23828125 15.94921875 C-17.45504042 9.34376812 -15.76335868 6.07039854 -11.3125 1.125 C-7.56449331 -0.6983546 -4.0640203 -0.87962856 0 0 Z "
            fill="#18C3B8" transform="translate(71,141)"/>
    <path
            d="M0 0 C2.375 1.3125 2.375 1.3125 4 3 C4 3.99 4 4.98 4 6 C3.1646875 5.505 3.1646875 5.505 2.3125 5 C-0.30284522 3.8690399 -2.1806646 3.84337026 -5 4 C-5 5.32 -5 6.64 -5 8 C-4.36191406 8.20496094 -3.72382812 8.40992188 -3.06640625 8.62109375 C-2.24011719 8.89050781 -1.41382812 9.15992188 -0.5625 9.4375 C0.26121094 9.70433594 1.08492187 9.97117188 1.93359375 10.24609375 C4 11 4 11 5 12 C5.23529412 17.52941176 5.23529412 17.52941176 4 20 C0.43528609 21.18823797 -2.2558336 21.26274852 -6 21 C-8.4375 19.6875 -8.4375 19.6875 -10 18 C-10 17.01 -10 16.02 -10 15 C-9.01 15 -8.02 15 -7 15 C-6.01 16.485 -6.01 16.485 -5 18 C-1.41642759 18.25015873 -1.41642759 18.25015873 2 18 C2 16.35 2 14.7 2 13 C1.07767578 12.83564453 1.07767578 12.83564453 0.13671875 12.66796875 C-0.67152344 12.50941406 -1.47976562 12.35085937 -2.3125 12.1875 C-3.51326172 11.96126953 -3.51326172 11.96126953 -4.73828125 11.73046875 C-7.27227149 10.9120643 -8.39926233 10.11172234 -10 8 C-9.86044591 5.20891823 -9.34214451 3.52222056 -7.8125 1.1875 C-5.09937351 -0.59006563 -3.17290804 -0.38851935 0 0 Z "
            fill="#17C0B5" transform="translate(129,148)"/>
    <path
            d="M0 0 C2.375 1.3125 2.375 1.3125 4 3 C4 3.99 4 4.98 4 6 C3.01 6 2.02 6 1 6 C0.67 5.34 0.34 4.68 0 4 C-1.98 4 -3.96 4 -6 4 C-5.80362194 5.96600775 -5.80362194 5.96600775 -5 8 C-3.21693588 9.06039988 -3.21693588 9.06039988 -1.0625 9.625 C1.75252096 10.49351826 2.86379137 10.86379137 5 13 C5.375 15.4375 5.375 15.4375 5 18 C2.63019586 20.7489728 1.12597587 20.98650259 -2.5 21.375 C-6.09887044 20.98940674 -7.56352232 20.63139589 -10 18 C-10 17.01 -10 16.02 -10 15 C-6.125 16.875 -6.125 16.875 -5 18 C-3.33382885 18.04063832 -1.66611905 18.042721 0 18 C0.33 16.68 0.66 15.36 1 14 C0.28972656 13.78085938 -0.42054688 13.56171875 -1.15234375 13.3359375 C-3.90901403 12.38482826 -6.44526956 11.40920833 -9 10 C-10.375 7 -10.375 7 -10 4 C-7.28051212 -0.13362158 -4.78982631 -0.69851634 0 0 Z "
            fill="#13C0B6" transform="translate(147,148)"/>
    <path
            d="M0 0 C0.66 0 1.32 0 2 0 C2.07347656 1.46373047 2.07347656 1.46373047 2.1484375 2.95703125 C2.22320312 4.22933594 2.29796875 5.50164062 2.375 6.8125 C2.44460937 8.07707031 2.51421875 9.34164062 2.5859375 10.64453125 C2.76102939 14.12755234 2.76102939 14.12755234 5 17 C7.43717258 16.72965366 7.43717258 16.72965366 10 16 C12.34770643 12.47844036 12.37669614 10.49228157 12.625 6.3125 C12.69976562 5.13300781 12.77453125 3.95351562 12.8515625 2.73828125 C12.90054688 1.83464844 12.94953125 0.93101562 13 0 C13.66 0 14.32 0 15 0 C15 6.27 15 12.54 15 19 C13.68 19 12.36 19 11 19 C10.34 19.33 9.68 19.66 9 20 C3.6070892 20.45897113 3.6070892 20.45897113 1.3269043 18.73510742 C-0.28627211 16.62566037 -0.35221638 15.61492612 -0.29296875 12.98828125 C-0.28330078 12.23095703 -0.27363281 11.47363281 -0.26367188 10.69335938 C-0.23853516 9.90767578 -0.21339844 9.12199219 -0.1875 8.3125 C-0.17396484 7.51521484 -0.16042969 6.71792969 -0.14648438 5.89648438 C-0.11117089 3.93070033 -0.05736447 1.96526418 0 0 Z "
            fill="#09BBAF" transform="translate(101,149)"/>
    <path
            d="M0 0 C1.79133978 -0.05391993 3.58313899 -0.09275571 5.375 -0.125 C6.37273437 -0.14820313 7.37046875 -0.17140625 8.3984375 -0.1953125 C11 0 11 0 13 2 C12.44444444 6.55555556 12.44444444 6.55555556 11 8 C9.14712498 8.07226502 7.29166122 8.0838122 5.4375 8.0625 C4.42558594 8.05347656 3.41367188 8.04445312 2.37109375 8.03515625 C1.58863281 8.02355469 0.80617187 8.01195312 0 8 C0 5.36 0 2.72 0 0 Z "
            fill="#FDFEFE" transform="translate(188,157)"/>
    <path
            d="M0 0 C1.4370809 -0.05422947 2.87475462 -0.09289723 4.3125 -0.125 C5.11300781 -0.14820313 5.91351563 -0.17140625 6.73828125 -0.1953125 C9 0 9 0 12 2 C11.625 4.4375 11.625 4.4375 11 7 C8.59454362 8.20272819 7.05003047 8.10071472 4.375 8.0625 C3.14910156 8.04896484 3.14910156 8.04896484 1.8984375 8.03515625 C0.95871094 8.01775391 0.95871094 8.01775391 0 8 C0 5.36 0 2.72 0 0 Z "
            fill="#ECFAF9" transform="translate(188,145)"/>
    <path
            d="M0 0 C0.3125 2.3125 0.3125 2.3125 0 5 C-2.1875 6.875 -2.1875 6.875 -5 8 C-7.8125 7.6875 -7.8125 7.6875 -10 7 C-10 5.35 -10 3.7 -10 2 C-8.7090864 1.66376204 -7.41723903 1.33110751 -6.125 1 C-5.40570313 0.814375 -4.68640625 0.62875 -3.9453125 0.4375 C-2 0 -2 0 0 0 Z "
            fill="#EEFAF9" transform="translate(94,159)"/>
    <path
            d="M0 0 C3.63 0 7.26 0 11 0 C11.29296875 8.3984375 11.29296875 8.3984375 11 11 C8 13 8 13 5.8125 12.625 C5.214375 12.41875 4.61625 12.2125 4 12 C5.375 10.5 5.375 10.5 7 9 C7.66 9 8.32 9 9 9 C9 6.69 9 4.38 9 2 C6.03 2 3.06 2 0 2 C0 1.34 0 0.68 0 0 Z "
            fill="#06BCB0" transform="translate(67,155)"/>
    <path
            d="M0 0 C0 0.66 0 1.32 0 2 C0.66 2.33 1.32 2.66 2 3 C-0.64 3.33 -3.28 3.66 -6 4 C-6.33 5.32 -6.66 6.64 -7 8 C-7.66 6.68 -8.32 5.36 -9 4 C-5.86025155 0.71753571 -4.76763047 0 0 0 Z "
            fill="#2CC5BA" transform="translate(90,157)"/>
    <path
            d="M0 0 C3.32820054 -0.22692276 5.41801336 -0.32162419 8.375 1.3125 C10 3 10 3 10 6 C9.01 6 8.02 6 7 6 C6.67 5.34 6.34 4.68 6 4 C4.67532254 3.3162955 3.34136367 2.65035814 2 2 C1.34 1.34 0.68 0.68 0 0 Z "
            fill="#29C6BC" transform="translate(141,148)"/>
    <path
            d="M0 0 C3.375 -0.125 3.375 -0.125 7 0 C9 2 9 2 9 5 C8.46375 4.690625 7.9275 4.38125 7.375 4.0625 C4.6015043 2.82172561 1.99957163 2.4090325 -1 2 C-0.67 1.34 -0.34 0.68 0 0 Z "
            fill="#0ABCB0" transform="translate(124,149)"/>
    <path
            d="M0 0 C0 0.33 0 0.66 0 1 C-1.65 1.33 -3.3 1.66 -5 2 C-5.33 2.99 -5.66 3.98 -6 5 C-6.66 5 -7.32 5 -8 5 C-8.66 5.99 -9.32 6.98 -10 8 C-9.64505955 5.37344067 -9.27538036 3.42031739 -7.8125 1.1875 C-5.20638339 -0.51995571 -3.0400645 -0.20267097 0 0 Z "
            fill="#45CBC3" transform="translate(129,148)"/>
</svg>