<?xml version="1.0" standalone="no"?>
<!DOCTYPE svg PUBLIC "-//W3C//DTD SVG 20010904//EN" "http://www.w3.org/TR/2001/REC-SVG-20010904/DTD/svg10.dtd">
<svg version="1.0" xmlns="http://www.w3.org/2000/svg" width="16" height="16"
     viewBox="0 0 225.000000 225.000000" preserveAspectRatio="xMidYMid meet">
    <metadata>
        Created by potrace 1.10, written by Peter Selinger 2001-2011
    </metadata>
    <g transform="translate(0.000000,225.000000) scale(0.100000,-0.100000)" fill="#000000" stroke="none">
        <path d="M260 2094 c-82 -22 -154 -74 -200 -145 -38 -58 -57 -125 -48 -165 4
-16 7 -14 18 11 50 117 75 158 116 194 91 80 38 76 953 79 897 3 887 3 977
-59 57 -39 95 -91 123 -168 26 -72 41 -85 41 -38 0 125 -114 255 -255 292 -87
22 -1641 22 -1725 -1z"/>
        <path d="M272 1997 c-52 -16 -122 -85 -149 -144 l-23 -54 0 -667 0 -667 24
-50 c28 -60 99 -127 154 -143 29 -9 258 -12 853 -12 797 0 815 1 859 21 55 25
105 71 133 124 22 40 22 42 22 730 l0 690 -22 41 c-29 54 -101 117 -151 132
-52 16 -1651 15 -1700 -1z m1736 -60 c23 -15 54 -46 69 -69 l28 -42 0 -691 0
-691 -28 -42 c-15 -23 -46 -54 -69 -69 l-42 -28 -841 0 -841 0 -42 28 c-23 15
-54 46 -69 69 l-28 42 -3 670 c-2 437 1 683 7 706 14 49 63 104 113 129 43 21
44 21 874 19 l830 -3 42 -28z"/>
        <path d="M1567 842 c-216 -216 -228 -231 -225 -262 2 -22 12 -40 30 -53 23
-17 31 -18 56 -8 16 7 128 112 250 235 180 179 222 227 222 249 0 37 -33 67
-73 67 -29 0 -56 -24 -260 -228z m281 163 c2 -15 -56 -79 -211 -232 -117 -117
-220 -213 -229 -213 -25 0 -30 29 -9 58 11 15 107 114 215 220 195 193 227
216 234 167z"/>
        <path d="M1743 667 c-63 -64 -70 -102 -26 -137 38 -30 68 -20 131 44 57 59 62
80 31 120 -34 43 -72 36 -136 -27z m107 -17 c0 -20 -73 -90 -94 -90 -33 0 -25
33 18 76 45 45 76 51 76 14z"/>
        <path d="M10 467 c0 -123 117 -256 255 -292 89 -23 1631 -23 1720 0 138 36
255 169 255 292 0 48 -12 35 -44 -45 -36 -92 -82 -144 -164 -184 l-67 -33
-840 0 -840 0 -49 23 c-100 46 -157 110 -191 213 -20 60 -35 71 -35 26z"/>
    </g>
</svg>