<?xml version="1.0" standalone="no"?>
<!DOCTYPE svg PUBLIC "-//W3C//DTD SVG 20010904//EN" "http://www.w3.org/TR/2001/REC-SVG-20010904/DTD/svg10.dtd">
<svg
        version="1.0" xmlns="http://www.w3.org/2000/svg" width="32" height="16"
        viewBox="0 0 2152.0 2152.0" preserveAspectRatio="xMidYMid meet">
    <g transform="translate(0.000000,2152.000000) scale(0.100000,-0.100000)" fill="#000000" stroke="none">
        <path
                d="M2018 13265 c-37 -8 -87 -23 -112 -34 -66 -29 -138 -80 -130 -93 4 -6 3 -8 -4 -5 -15 10 -88 -77 -122 -147 -61 -124 -60 -91 -60 -1352 0 -1114 1 -1153 20 -1228 36 -143 118 -255 239 -326 140 -82 119 -80 751 -80 536 0 563 1 623 20 34 11 80 30 102 42 58 31 136 98 128 110 -3 7 -1 8 5 4 16 -9 95 101 124 172 l23 57 3 698 3 697 -501 0 c-328 0 -499 -3 -495 -10 3 -5 0 -7 -9 -4 -8 3 -30 -9 -52 -29 -34 -31 -38 -40 -42 -95 -2 -34 -2 -72 2 -86 10 -39 56 -88 78 -83 10 3 16 2 13 -3 -10 -16 65 -20 357 -20 l299 0 -3 -477 -3 -478 -24 -48 c-13 -26 -41 -63 -63 -82 -76 -64 -84 -65 -564 -65 -408 0 -436 1 -487 20 -56 21 -113 72 -143 130 -18 34 -19 82 -19 1160 0 619 4 1138 8 1153 12 43 95 127 152 153 l50 24 620 0 c691 0 665 -3 712 69 31 46 32 141 3 189 -39 64 -21 62 -752 61 -509 -1 -679 -4 -730 -14z"/>
        <path
                d="M6925 13261 c-17 -10 -40 -31 -50 -47 -20 -28 -20 -59 -23 -1554 -2 -1052 0 -1536 8 -1562 5 -20 26 -50 45 -67 34 -30 40 -31 122 -31 70 0 92 4 120 22 67 41 63 -66 63 1618 0 1681 5 1559 -60 1614 -28 23 -40 26 -113 26 -62 0 -89 -5 -112 -19z"/>
        <path
                d="M9564 13271 c5 -7 1 -9 -9 -5 -10 4 -28 -7 -50 -31 l-35 -36 0 -510 c0 -560 0 -564 -58 -588 -39 -16 -98 0 -232 63 -269 125 -378 150 -624 144 -151 -4 -180 -8 -244 -31 -41 -14 -99 -41 -129 -59 -63 -38 -166 -145 -158 -166 2 -7 1 -11 -4 -8 -13 9 -59 -102 -71 -174 -8 -45 -10 -283 -8 -765 l3 -700 27 -66 c69 -173 179 -272 361 -327 71 -21 103 -25 242 -26 95 -1 194 5 245 13 105 17 261 68 394 128 206 93 235 91 297 -23 22 -40 51 -79 64 -88 29 -19 195 -23 195 -5 0 5 4 8 10 4 5 -3 16 8 25 24 13 27 15 203 15 1581 0 1685 4 1575 -55 1630 -24 22 -37 25 -117 29 -64 2 -88 0 -84 -8z m-255 -1326 c63 -35 113 -95 138 -168 17 -48 18 -99 18 -637 l0 -585 -33 -67 c-38 -77 -93 -130 -160 -152 -68 -24 -717 -23 -785 0 -62 21 -130 83 -162 147 l-25 53 2 620 c3 694 -1 649 79 732 42 44 85 70 134 83 17 4 190 7 385 6 l355 -2 54 -30z"/>
        <path
                d="M13830 12303 c-111 -16 -193 -46 -457 -162 -51 -22 -118 -44 -148 -47 -67 -8 -79 1 -130 92 -53 94 -81 114 -165 114 -59 0 -73 -4 -99 -26 -17 -14 -35 -42 -41 -62 -14 -51 -14 -2063 0 -2114 6 -20 26 -50 46 -67 33 -29 39 -31 117 -31 83 0 134 16 129 39 -1 7 2 10 7 7 5 -3 17 7 27 22 18 26 19 69 24 862 l5 835 23 47 c13 26 44 66 68 88 83 76 74 75 489 75 363 0 371 0 416 -22 26 -13 52 -30 59 -38 7 -8 17 -12 23 -8 5 3 7 1 4 -4 -4 -6 -1 -16 7 -22 7 -6 26 -39 42 -74 l29 -62 5 -833 c4 -680 7 -834 18 -841 8 -5 13 -12 11 -17 -1 -5 12 -19 31 -31 45 -31 178 -33 226 -4 67 41 64 -3 64 950 0 585 -4 877 -11 913 -42 205 -210 368 -424 413 -64 13 -325 19 -395 8z"/>
        <path
                d="M4683 12289 c-24 -6 -43 -15 -43 -20 0 -6 -4 -8 -10 -4 -5 3 -37 -9 -70 -27 -134 -72 -226 -172 -273 -295 -22 -57 -22 -65 -25 -772 -2 -620 0 -721 13 -774 43 -167 195 -325 364 -377 59 -19 94 -20 551 -20 547 0 550 0 675 75 71 43 157 124 151 142 -3 7 0 12 6 10 17 -3 64 88 83 158 13 51 15 163 15 766 0 674 -1 710 -20 770 -30 98 -127 238 -153 222 -6 -3 -7 -2 -4 4 9 14 -67 66 -160 111 l-78 37 -490 2 c-289 1 -507 -3 -532 -8z m903 -324 c61 -18 116 -62 152 -123 l27 -47 0 -645 c0 -721 4 -678 -72 -753 -72 -73 -64 -72 -492 -75 l-384 -3 -53 26 c-60 29 -97 69 -128 135 -21 44 -21 57 -21 660 0 562 2 619 18 666 25 71 99 141 176 165 14 4 184 8 377 8 281 1 360 -2 400 -14z"/>
        <path
                d="M10830 12284 c-134 -36 -300 -165 -354 -276 -56 -115 -56 -105 -56 -853 0 -639 1 -695 18 -756 43 -155 181 -311 332 -375 42 -18 78 -19 547 -22 570 -3 548 -6 578 73 21 53 16 142 -10 181 -8 13 -33 33 -55 44 -37 19 -58 20 -428 20 -326 0 -397 3 -443 16 -77 23 -113 54 -151 131 l-33 68 0 235 0 235 670 5 c679 5 739 9 719 42 -5 7 -3 8 6 3 20 -13 95 76 111 133 11 35 14 123 14 352 0 332 -1 341 -61 466 -57 118 -217 241 -359 279 -85 22 -962 21 -1045 -1z m926 -319 c63 -19 122 -69 154 -131 24 -48 25 -56 28 -291 l3 -243 -586 0 -587 0 4 238 c4 267 10 294 83 365 75 73 95 76 496 76 285 1 365 -2 405 -14z"/>
    </g>
</svg>