<?xml version="1.0" encoding="UTF-8"?>
<svg version="1.1" xmlns="http://www.w3.org/2000/svg" width="1080" height="608">
    <path
        d="M0 0 C356.4 0 712.8 0 1080 0 C1080 200.64 1080 401.28 1080 608 C723.6 608 367.2 608 0 608 C0 407.36 0 206.72 0 0 Z "
        fill="#FEFEFE" transform="translate(0,0)" />
    <path
        d="M0 0 C1.57229067 0.00119492 3.14458207 0.0016443 4.71687317 0.00138855 C7.98357726 0.00294001 11.25016966 0.01113403 14.5168457 0.0246582 C18.7112251 0.041802 22.90548417 0.04546743 27.09989452 0.04471302 C30.33310603 0.04498401 33.56629106 0.05045113 36.79949379 0.05771446 C38.34771843 0.06090047 39.89594607 0.06286838 41.44417381 0.06360817 C43.59328801 0.0657637 45.74227116 0.074486 47.89135742 0.08520508 C49.72569588 0.09092278 49.72569588 0.09092278 51.59709167 0.09675598 C54.33203125 0.23046875 54.33203125 0.23046875 55.33203125 1.23046875 C55.02980022 13.57544387 50.28380755 23.08147425 41.39453125 31.59375 C34.83453225 36.79950678 27.81938144 40.39306816 19.39916992 40.30883789 C18.42102829 40.30296158 17.44288666 40.29708527 16.43510437 40.29103088 C15.38401993 40.28264694 14.33293549 40.274263 13.25 40.265625 C11.01627144 40.2693379 8.78254567 40.27526663 6.54882812 40.28320312 C3.03271495 40.29376055 -0.48136954 40.29295893 -3.99731445 40.25463867 C-7.39516087 40.22147848 -10.78966067 40.23912314 -14.1875 40.265625 C-15.23251175 40.24307144 -16.2775235 40.22051788 -17.35420227 40.19728088 C-23.0366022 40.28260827 -23.0366022 40.28260827 -27.87538147 42.98786926 C-29.65261019 44.99196915 -31.19344287 46.99693386 -32.66796875 49.23046875 C-33.23128906 50.05675781 -33.79460937 50.88304687 -34.375 51.734375 C-34.73980469 52.41371094 -35.10460937 53.09304688 -35.48046875 53.79296875 C-35.85816406 54.47488281 -36.23585938 55.15679687 -36.625 55.859375 C-41.23664963 66.34353726 -41.41441407 79.85782755 -38.10546875 90.79296875 C-34.62016095 99.5675993 -29.22139469 106.61834387 -21.66796875 112.23046875 C-20.73984375 112.97296875 -19.81171875 113.71546875 -18.85546875 114.48046875 C-9.91085791 119.39123549 0.43494328 118.45149553 10.33203125 118.23046875 C5.95816118 123.83799448 1.46140811 127.63085289 -4.66796875 131.23046875 C-5.25449219 131.59269531 -5.84101563 131.95492187 -6.4453125 132.328125 C-9.73280437 133.66276581 -13.10610233 133.97765211 -16.60546875 134.35546875 C-17.73130371 134.48175659 -17.73130371 134.48175659 -18.87988281 134.6105957 C-27.14835829 135.47694234 -35.50540327 136.09236781 -43.66796875 134.23046875 C-43.66796875 133.57046875 -43.66796875 132.91046875 -43.66796875 132.23046875 C-44.3434375 132.21628906 -45.01890625 132.20210937 -45.71484375 132.1875 C-53.08962274 131.79318378 -53.08962274 131.79318378 -55.98046875 128.98046875 C-56.53734375 128.07296875 -57.09421875 127.16546875 -57.66796875 126.23046875 C-58.81265625 125.14765625 -58.81265625 125.14765625 -59.98046875 124.04296875 C-75.14227307 108.17596423 -80.31881489 89.72451493 -80.140625 68.32104492 C-79.56126524 47.66088707 -70.32626237 30.9570371 -55.5859375 16.84375 C-39.56846402 2.49878379 -20.66221599 -0.10469086 0 0 Z "
        fill="#A248E9" transform="translate(397.66796875,227.76953125)" />
    <path
        d="M0 0 C2.14929137 0.00838257 4.29580451 -0.02002692 6.44482422 -0.05200195 C21.14584856 -0.12825572 33.8101251 3.47266217 45.03076172 13.40698242 C47.19072121 15.63742043 49.0051393 17.92388892 50.81591797 20.44604492 C51.49138672 21.37288086 52.16685547 22.2997168 52.86279297 23.25463867 C59.58274062 34.23503313 59.73246407 46.95744969 57.81591797 59.44604492 C54.79144003 70.93201718 47.32031533 80.55869553 37.22607422 86.69213867 C25.4761077 93.40892594 15.64636263 94.80742361 2.06591797 94.82104492 C0.76525391 94.84553711 -0.53541016 94.8700293 -1.87548828 94.89526367 C-3.75300781 94.90106445 -3.75300781 94.90106445 -5.66845703 94.90698242 C-7.36566895 94.91930908 -7.36566895 94.91930908 -9.09716797 94.93188477 C-12.919797 94.33025302 -14.50320209 93.20660756 -17.18408203 90.44604492 C-19.32083033 86.31058876 -19.47501685 82.45013302 -19.45874023 77.8894043 C-19.46385117 77.14568069 -19.4689621 76.40195709 -19.47422791 75.63569641 C-19.48808324 73.18697984 -19.48717048 70.73854594 -19.48486328 68.28979492 C-19.48875194 66.58255916 -19.49308696 64.87532437 -19.49784851 63.16809082 C-19.5053016 59.59388082 -19.50502569 56.01976961 -19.49975586 52.44555664 C-19.49395693 47.86898109 -19.51090671 43.29280969 -19.53410053 38.71630096 C-19.54884153 35.19209434 -19.54970917 31.66798504 -19.54659081 28.14375305 C-19.54710365 26.45647887 -19.55233455 24.76919918 -19.56240273 23.08195496 C-19.5747596 20.72193199 -19.56798091 18.36269621 -19.55639648 16.00268555 C-19.56404022 15.30851028 -19.57168396 14.61433502 -19.57955933 13.89912415 C-19.53259381 9.56342837 -18.72975721 6.94715053 -16.18408203 3.44604492 C-15.76819824 2.85686279 -15.35231445 2.26768066 -14.92382812 1.66064453 C-10.92227745 -1.13302858 -4.76523921 -0.02828193 0 0 Z "
        fill="#271C19" transform="translate(501.18408203125,256.553955078125)" />
    <path
        d="M0 0 C2.20660021 -0.1360233 4.41566095 -0.23245148 6.625 -0.3125 C8.46964844 -0.39951172 8.46964844 -0.39951172 10.3515625 -0.48828125 C14.7683079 0.10282493 17.28046257 1.56198669 20 5 C21.42351416 7.67998685 22.35415989 10.41883465 23.25 13.3125 C23.61351562 14.3943457 23.61351562 14.3943457 23.984375 15.49804688 C25.31910111 19.54212192 26.39938043 23.60283716 27.40136719 27.74291992 C28.72236241 32.72358912 30.40060162 37.6032912 32 42.5 C35.96558291 54.64100565 35.96558291 54.64100565 37.1875 59.71875 C37.65827543 62.83041446 37.65827543 62.83041446 39 64 C40.47292358 60.84373518 41.2702465 57.8137163 41.890625 54.41015625 C42.89552164 49.25947673 44.3095765 44.31688559 45.875 39.3125 C47.75707236 33.19319369 49.53813258 27.07763654 51.125 20.875 C55.08090952 5.86869861 55.08090952 5.86869861 58.78515625 2.26171875 C62.92116149 -0.09441827 67.39505469 0.41155231 72 1 C76.05582508 2.94341619 76.80739838 4.52652101 78.5 8.6875 C79.01489136 10.45406095 79.51259627 12.22565835 80 14 C80.52659071 15.77902268 81.05340019 17.55798205 81.58276367 19.33618164 C82.21718374 21.47507627 82.84384928 23.61611776 83.46875 25.7578125 C85.36639177 32.25775121 87.27375444 38.75478482 89.1875 45.25 C89.53256592 46.42868652 89.87763184 47.60737305 90.2331543 48.82177734 C90.72682495 50.49554443 90.72682495 50.49554443 91.23046875 52.203125 C91.52332764 53.19989258 91.81618652 54.19666016 92.11791992 55.22363281 C92.96075575 57.87647782 93.93112718 60.43094964 95 63 C97.7297502 54.35176486 100.40568784 45.68989796 103 37 C104.87812197 30.72373668 106.75877767 24.44842941 108.6875 18.1875 C109.06261719 16.96417969 109.43773437 15.74085938 109.82421875 14.48046875 C111.04130214 10.87774016 112.45692085 7.47303982 114 4 C114.66 4 115.32 4 116 4 C116 3.34 116 2.68 116 2 C119.7367843 -0.49118953 121.74451819 -0.2065226 126.1875 -0.125 C127.45980469 -0.10695313 128.73210937 -0.08890625 130.04296875 -0.0703125 C131.01878906 -0.04710937 131.99460937 -0.02390625 133 0 C132.45330634 4.69098433 131.51552481 8.72689709 129.8125 13.125 C127.5811833 19.16305875 125.72924059 25.23794709 124 31.4375 C122.30875155 37.49686648 120.55255552 43.49035195 118.5 49.4375 C116.0851106 56.48866744 114.16239751 63.63819525 112.24365234 70.83813477 C110.13634352 78.67516012 107.69460098 86.34542553 105 94 C102.26916098 94.13548815 99.54508193 94.23429855 96.8125 94.3125 C96.04357422 94.35439453 95.27464844 94.39628906 94.48242188 94.43945312 C90.27860295 94.52966383 88.53282919 94.40139799 85.0703125 91.79296875 C83.08387863 89.11315703 82.01087261 87.17067856 81.0625 84 C80.74410156 82.95585937 80.42570313 81.91171875 80.09765625 80.8359375 C79.73542969 79.57007813 79.37320313 78.30421875 79 77 C78.51962774 75.34632613 78.03915161 73.69268244 77.55859375 72.0390625 C76.51111212 68.41390259 75.47885729 64.78481468 74.45703125 61.15234375 C73.579512 58.03374006 72.68727642 54.92108657 71.76171875 51.81640625 C69.99693591 45.85464894 68.49647403 40.20592535 68 34 C67.34 34 66.68 34 66 34 C65.65388672 35.41925781 65.65388672 35.41925781 65.30078125 36.8671875 C62.93725741 46.48394455 60.41009541 56.04426027 57.68847656 65.56591797 C56.95014199 68.17627106 56.2374074 70.79304234 55.5234375 73.41015625 C55.01662663 75.21121966 54.50883487 77.01200737 54 78.8125 C53.77521973 79.65458008 53.55043945 80.49666016 53.31884766 81.36425781 C51.83906073 86.49404696 50.21433564 89.4718802 46 93 C45.67 93.33 45.34 93.66 45 94 C42.13732433 94.07325168 39.299281 94.09238205 36.4375 94.0625 C35.63119141 94.05798828 34.82488281 94.05347656 33.99414062 94.04882812 C31.99606244 94.03700518 29.99802217 94.01906914 28 94 C27.81937012 93.37246826 27.63874023 92.74493652 27.45263672 92.09838867 C24.13758013 80.60249281 20.77631556 69.1307758 17.13037109 57.73510742 C15.29699782 51.98976322 13.57800633 46.21745932 11.8984375 40.42553711 C10.30604451 34.96508373 8.60436751 29.54347156 6.875 24.125 C4.32993843 16.14308977 2.01908023 8.13189195 0 0 Z "
        fill="#281D1A" transform="translate(556,257)" />
    <path
        d="M0 0 C1.44798071 -0.01110009 2.89598589 -0.01904129 4.34399414 -0.02563477 C5.15034805 -0.03039322 5.95670197 -0.03515167 6.78749084 -0.04005432 C15.89137379 0.12475849 23.50837767 5.9531791 30.01171875 11.8125 C40.02199836 22.23535078 40.78609795 34.23787423 40.59692383 47.92797852 C40.5624283 50.69324743 40.57636151 53.45534131 40.59570312 56.22070312 C40.5888073 58.00522173 40.57913729 59.78973223 40.56640625 61.57421875 C40.57384605 62.79331184 40.57384605 62.79331184 40.58143616 64.03703308 C40.38814594 73.57487571 35.96380818 82.36687026 29.125 89 C14.84077461 100.53027516 -6.49008935 102.55063212 -24.10986328 100.7890625 C-41.86405356 98.65419289 -56.67895365 91.58512122 -71 81 C-67.61682513 80.02408417 -65.4342662 80.14143345 -62 81 C-62 81.66 -62 82.32 -62 83 C-34.81924597 83.95184658 -34.81924597 83.95184658 -11.78515625 70.94140625 C-10.02953893 69.03732235 -8.49059156 67.11595469 -7 65 C-6.59265625 64.42507813 -6.1853125 63.85015625 -5.765625 63.2578125 C-0.77501891 55.41026524 -0.68745497 46.41372264 -0.5859375 37.40234375 C-0.56657135 36.32747208 -0.5472052 35.2526004 -0.5272522 34.14515686 C-0.46790699 30.742683 -0.42125228 27.34017447 -0.375 23.9375 C-0.33677872 21.61782453 -0.29772463 19.29816262 -0.2578125 16.97851562 C-0.16224297 11.31913163 -0.07706622 5.65966461 0 0 Z "
        fill="#F79F60" transform="translate(416,279)" />
    <path
        d="M0 0 C-0.39541992 0.51876709 -0.79083984 1.03753418 -1.19824219 1.57202148 C-4.03425522 5.31800143 -6.80747689 9.04307324 -9.25 13.0625 C-9.96929687 14.22458984 -9.96929687 14.22458984 -10.703125 15.41015625 C-15.81785533 25.62421109 -15.71319858 39.73723002 -12.4375 50.5625 C-8.9521922 59.33713055 -3.55342594 66.38787512 4 72 C4.928125 72.7425 5.85625 73.485 6.8125 74.25 C15.75711084 79.16076674 26.10291203 78.22102678 36 78 C31.62612993 83.60752573 27.12937686 87.40038414 21 91 C20.41347656 91.36222656 19.82695312 91.72445312 19.22265625 92.09765625 C15.93516438 93.43229706 12.56186642 93.74718336 9.0625 94.125 C8.31194336 94.20919189 7.56138672 94.29338379 6.78808594 94.38012695 C-1.48038954 95.24647359 -9.83743452 95.86189906 -18 94 C-18 93.34 -18 92.68 -18 92 C-19.01320313 91.97873047 -19.01320313 91.97873047 -20.046875 91.95703125 C-27.42165399 91.56271503 -27.42165399 91.56271503 -30.3125 88.75 C-30.869375 87.8425 -31.42625 86.935 -32 86 C-33.1446875 84.9171875 -33.1446875 84.9171875 -34.3125 83.8125 C-48.70825668 68.74717324 -54.24175584 51.13800404 -54.625 30.75 C-54.66028809 29.65413574 -54.69557617 28.55827148 -54.73193359 27.42919922 C-54.72689641 24.49160345 -54.65431753 21.86438559 -54 19 C-51.1328125 16.48046875 -51.1328125 16.48046875 -48 15 C-46.44908058 13.31177726 -46.44908058 13.31177726 -45.25 11.5625 C-41.59934484 7.13430271 -37.25992663 5.10551315 -32 3 C-31.22398437 2.67902344 -30.44796875 2.35804688 -29.6484375 2.02734375 C-20.17869902 -1.2043924 -9.8682894 -0.26797332 0 0 Z "
        fill="#1A65ED" transform="translate(372,268)" />
    <path
        d="M0 0 C0.96813629 0.00141495 1.93627258 0.0028299 2.93374634 0.00428772 C6.01055049 0.0098626 9.08728053 0.02241048 12.1640625 0.03515625 C14.25650936 0.0401745 16.34895737 0.04473684 18.44140625 0.04882812 C23.55732 0.0598238 28.67317871 0.0770711 33.7890625 0.09765625 C33.8365036 1.53613808 33.87034287 2.97507281 33.8984375 4.4140625 C33.91874023 5.21529541 33.93904297 6.01652832 33.95996094 6.84204102 C33.70114656 10.258021 32.26132639 11.83141435 29.7890625 14.09765625 C26.12674014 16.53741161 22.39132345 16.40966654 18.13671875 16.44140625 C17.39957138 16.45602905 16.66242401 16.47065186 15.90293884 16.48571777 C13.55253476 16.53210191 11.20221299 16.56636239 8.8515625 16.59765625 C5.75880782 16.63892261 2.66663479 16.69264146 -0.42578125 16.75390625 C-1.1311351 16.75918335 -1.83648895 16.76446045 -2.56321716 16.76989746 C-7.38218319 16.86675306 -11.11211473 17.50162838 -14.98828125 20.44921875 C-16.99991006 23.16138283 -16.80339397 25.59535974 -16.69140625 28.875 C-16.32474844 31.45681075 -16.32474844 31.45681075 -13.5859375 34.03515625 C-9.06271394 36.79934843 -5.31899946 38.03892499 -0.0859375 38.47265625 C10.89120769 39.57773798 22.55982451 44.18674974 29.9765625 52.5703125 C34.69864513 59.15476824 34.4800063 65.11142277 33.7890625 73.09765625 C32.09465135 80.12548236 26.62159197 85.1648201 20.7890625 89.09765625 C13.21411683 93.29014757 7.04424799 94.81471513 -1.56640625 94.5859375 C-2.59405594 94.57886276 -3.62170563 94.57178802 -4.68049622 94.5644989 C-7.92059229 94.53680313 -11.15887546 94.47411244 -14.3984375 94.41015625 C-16.61260502 94.38504129 -18.82679998 94.36223378 -21.04101562 94.34179688 C-26.43159441 94.28705881 -31.8211364 94.20368749 -37.2109375 94.09765625 C-37.27702033 92.66077837 -37.32415276 91.22302062 -37.36328125 89.78515625 C-37.39156006 88.98464844 -37.41983887 88.18414062 -37.44897461 87.359375 C-37.2109375 85.09765625 -37.2109375 85.09765625 -34.7734375 82.09765625 C-33.505 81.10765625 -33.505 81.10765625 -32.2109375 80.09765625 C-31.7159375 79.60265625 -31.7159375 79.60265625 -31.2109375 79.09765625 C-28.71270551 78.99929015 -26.23710612 78.96052202 -23.73828125 78.95703125 C-22.18292827 78.9386856 -20.62758937 78.91911369 -19.07226562 78.8984375 C-16.61898404 78.86960124 -14.16659615 78.84765989 -11.71313477 78.84716797 C0.9605093 79.04345705 0.9605093 79.04345705 11.7890625 73.09765625 C13.35606692 69.9636474 13.64070811 66.4661053 12.7890625 63.09765625 C9.4395717 59.77252538 6.28860188 58.35752728 1.7890625 57.09765625 C0.64824219 56.76636719 -0.49257813 56.43507813 -1.66796875 56.09375 C-3.42173828 55.60068359 -3.42173828 55.60068359 -5.2109375 55.09765625 C-29.0324641 48.31113137 -29.0324641 48.31113137 -35.5234375 37.59765625 C-38.34547893 31.49094364 -38.63124022 24.06403158 -36.36328125 17.73046875 C-32.02125541 10.16504068 -24.41921956 4.00020466 -16.2109375 1.09765625 C-10.79520186 -0.07522219 -5.51035162 -0.03053264 0 0 Z "
        fill="#281D1A" transform="translate(728.2109375,256.90234375)" />
    <path
        d="M0 0 C24.91992188 0 24.91992188 0 35.30859375 9 C42.15560502 16.28829474 43.57486636 22.71313776 43.35546875 32.5546875 C42.86116605 37.34562141 41.43960685 40.89432019 39 45 C38.443125 46.051875 37.88625 47.10375 37.3125 48.1875 C32.91492748 53.53589901 27.35926844 56.45629262 21 59 C14.07 59 7.14 59 0 59 C0 39.53 0 20.06 0 0 Z "
        fill="#FAF9F9" transform="translate(499,274)" />
    <path
        d="M0 0 C1.05692047 0.00636726 1.05692047 0.00636726 2.13519287 0.01286316 C4.37698212 0.02960337 6.61785931 0.06724471 8.859375 0.10546875 C10.38279948 0.12052171 11.90623811 0.13420905 13.4296875 0.14648438 C17.15654441 0.17949084 20.88287063 0.23124021 24.609375 0.29296875 C24.609375 0.62296875 24.609375 0.95296875 24.609375 1.29296875 C23.25573853 1.29127686 23.25573853 1.29127686 21.87475586 1.28955078 C18.4986082 1.29952719 15.12488163 1.33624661 11.74926758 1.390625 C10.29363134 1.40869742 8.83782479 1.41636945 7.38208008 1.41308594 C-2.4105206 1.12115561 -2.4105206 1.12115561 -10.88671875 5.34765625 C-12.12615234 6.80558594 -12.12615234 6.80558594 -13.390625 8.29296875 C-10.99239509 0.89842654 -7.50898854 -0.08939272 0 0 Z "
        fill="#2C211E" transform="translate(704.390625,335.70703125)" />
    <path
        d="M0 0 C0.66 0.33 1.32 0.66 2 1 C0.73548068 2.31858428 -0.53685475 3.62967631 -1.8125 4.9375 C-2.52019531 5.66839844 -3.22789062 6.39929688 -3.95703125 7.15234375 C-6 9 -6 9 -9 10 C-9 8.68 -9 7.36 -9 6 C-8.071875 5.566875 -7.14375 5.13375 -6.1875 4.6875 C-3.52815927 3.27961373 -1.91894095 2.23876444 0 0 Z "
        fill="#5821F5" transform="translate(328,277)" />
    <path
        d="M0 0 C2.97 0.33 5.94 0.66 9 1 C9 1.66 9 2.32 9 3 C8.34 3 7.68 3 7 3 C6.67 3.66 6.34 4.32 6 5 C3.98079663 3.69593116 1.98075027 2.36176581 0 1 C0 0.67 0 0.34 0 0 Z "
        fill="#C472B5" transform="translate(345,359)" />
    <path
        d="M0 0 C0.95465783 2.16967689 1.14401212 3.56328793 0.3984375 5.82421875 C-0.35870385 7.5684743 -1.17609198 9.28627131 -2 11 C-3.74627478 8.38058783 -4.38722388 6.96175123 -5 4 C-3.02 4.99 -3.02 4.99 -1 6 C-0.67 4.02 -0.34 2.04 0 0 Z "
        fill="#B5B1B0" transform="translate(597,312)" />
    <path
        d="M0 0 C0.5775 0.226875 1.155 0.45375 1.75 0.6875 C0.6671875 1.30625 0.6671875 1.30625 -0.4375 1.9375 C-3.22969862 3.67486803 -5.72012585 5.59131857 -8.25 7.6875 C-6.86345583 3.41232214 -5.12511737 -0.71182186 0 0 Z "
        fill="#443B38" transform="translate(699.25,336.3125)" />
</svg>