<?xml version="1.0" standalone="no"?>
<!DOCTYPE svg PUBLIC "-//W3C//DTD SVG 20010904//EN" "http://www.w3.org/TR/2001/REC-SVG-20010904/DTD/svg10.dtd">
<svg version="1.0" xmlns="http://www.w3.org/2000/svg" width="377.000000pt" height="57.000000pt"
    viewBox="0 0 377.000000 57.000000" preserveAspectRatio="xMidYMid meet">

    <g transform="translate(0.000000,57.000000) scale(0.100000,-0.100000)" fill="#000000" stroke="none">
        <path d="M2607 470 c-25 -52 -83 -176 -130 -275 l-85 -180 45 -3 c25 -2 51 -1
      57 1 6 3 42 73 81 156 38 83 73 151 76 151 3 0 39 -70 79 -155 l74 -155 53 0
      c29 0 53 2 53 4 0 2 -46 100 -101 217 -56 118 -114 241 -130 274 l-27 60 -45
      -95z" />
        <path d="M3037 538 c-79 -21 -128 -104 -107 -180 17 -59 75 -97 196 -128 58
      -14 94 -45 94 -79 0 -42 -30 -63 -90 -63 -55 0 -95 19 -105 52 -5 17 -15 20
      -61 20 -46 0 -54 -3 -54 -19 0 -31 44 -85 90 -111 38 -21 58 -25 125 -24 94 1
      154 26 185 77 24 38 26 116 6 155 -18 35 -91 75 -176 97 -76 19 -100 38 -100
      75 0 38 25 55 78 55 38 0 48 -5 71 -32 25 -29 33 -33 79 -33 29 0 52 2 52 5 0
      3 -6 20 -14 38 -36 86 -150 127 -269 95z" />
        <path d="M130 437 l0 -103 -61 -30 -61 -30 61 -29 61 -29 0 -103 0 -103 55 0
      55 0 0 75 c0 41 2 75 4 75 2 0 68 -31 148 -70 80 -38 150 -70 157 -70 7 0 11
      19 11 50 l0 50 -161 78 -162 77 162 79 161 78 0 54 c0 64 16 66 -180 -31
      l-135 -66 -3 75 -3 76 -54 0 -55 0 0 -103z" />
        <path d="M640 275 l0 -265 55 0 55 0 0 265 0 265 -55 0 -55 0 0 -265z" />
        <path d="M840 275 l0 -265 50 0 50 0 2 203 3 202 104 -203 104 -202 69 0 68 0
      0 265 0 265 -50 0 -50 0 0 -197 c-1 -158 -3 -195 -13 -182 -7 9 -55 98 -107
      198 l-95 181 -67 0 -68 0 0 -265z" />
        <path d="M1473 519 c-186 -93 -186 -391 -2 -483 131 -65 286 2 334 143 8 24
      15 60 15 78 l0 33 -114 0 -114 0 10 -40 10 -40 55 0 55 0 -19 -31 c-30 -52
      -68 -74 -126 -74 -94 0 -152 68 -152 175 1 159 173 230 267 110 23 -29 26 -30
      58 -19 19 7 38 15 43 19 12 11 -49 87 -95 117 -57 38 -163 44 -225 12z" />
        <path d="M1980 276 l0 -266 143 0 c128 0 147 2 187 23 62 31 85 67 85 131 0
      41 -6 60 -26 87 l-26 34 19 35 c35 64 13 143 -56 194 -24 19 -45 21 -177 24
      l-149 4 0 -266z m258 167 c32 -27 37 -64 12 -96 -20 -25 -27 -27 -91 -27 l-69
      0 0 70 0 70 64 0 c46 0 69 -5 84 -17z m30 -239 c17 -20 22 -34 17 -53 -11 -46
      -30 -56 -115 -59 l-80 -4 0 77 0 78 78 -6 c68 -5 80 -9 100 -33z" />
        <path d="M3380 275 l0 -265 195 0 195 0 0 45 0 45 -140 0 -140 0 0 175 0 175
      140 0 140 0 0 45 0 45 -195 0 -195 0 0 -265z" />
        <path d="M3520 275 l0 -45 125 0 125 0 0 45 0 45 -125 0 -125 0 0 -45z" />
        <path d="M2612 134 c-47 -33 -18 -114 41 -114 26 0 67 40 67 65 0 23 -41 65
      -64 65 -12 0 -32 -7 -44 -16z" />
    </g>
</svg>