<?xml version="1.0" encoding="UTF-8"?>
<svg xmlns="http://www.w3.org/2000/svg" xmlns:xlink="http://www.w3.org/1999/xlink" width="1024px" height="832px" viewBox="0 0 1022 832" version="1.1">
<g id="surface1">
<path style=" stroke:none;fill-rule:nonzero;fill:rgb(0%,0%,0%);fill-opacity:1;" d="M 494.988281 71.605469 C 486.132812 73.652344 445.59375 95.476562 389.382812 128.550781 L 298.082031 182.425781 L 298.082031 246.53125 L 378.140625 293.929688 C 480.339844 354.621094 487.492188 358.03125 511 358.03125 C 534.507812 358.03125 542.339844 354.28125 643.859375 294.269531 L 723.917969 246.871094 L 724.9375 217.886719 L 725.960938 189.246094 L 657.828125 152.417969 L 589.695312 115.59375 L 537.570312 145.601562 L 485.449219 175.949219 L 484.429688 206.296875 C 483.066406 244.828125 485.449219 251.644531 493.625 233.234375 C 500.097656 218.910156 507.933594 212.773438 561.078125 182.425781 L 589.011719 166.742188 L 634.320312 190.609375 C 658.847656 203.90625 680.3125 214.820312 682.015625 214.820312 C 683.378906 214.820312 684.738281 216.183594 684.738281 218.230469 C 684.738281 219.933594 683.71875 221.640625 682.015625 221.640625 C 680.652344 221.640625 648.289062 240.050781 610.132812 262.558594 C 571.636719 285.0625 535.1875 304.5 529.054688 305.519531 C 502.144531 310.636719 486.132812 305.519531 438.777344 277.902344 C 413.910156 263.238281 379.160156 242.78125 361.449219 232.550781 L 329.425781 213.796875 L 339.304688 208.683594 C 344.753906 205.953125 379.160156 185.835938 415.273438 164.355469 C 464.328125 135.371094 485.449219 124.800781 496.351562 123.4375 L 511 121.730469 L 511 95.132812 C 511 80.132812 510.660156 68.195312 510.320312 68.539062 C 509.636719 68.878906 502.824219 70.242188 494.988281 71.605469 Z M 499.417969 93.769531 C 502.144531 104.339844 497.714844 109.796875 482.726562 115.253906 C 472.503906 119.003906 397.558594 161.625 346.457031 192.996094 C 326.019531 205.613281 322.269531 216.183594 334.875 227.09375 C 344.414062 235.277344 372.007812 251.988281 405.394531 270.398438 C 415.613281 275.855469 426.515625 282.335938 429.238281 284.722656 C 431.964844 287.109375 439.800781 291.882812 446.273438 294.949219 C 452.746094 298.359375 458.878906 302.113281 459.898438 303.476562 C 460.921875 304.839844 469.78125 308.589844 480 312 C 503.847656 319.84375 534.507812 317.457031 555.628906 306.542969 C 599.914062 283.355469 681.332031 232.550781 685.082031 225.730469 C 692.914062 211.75 684.738281 204.929688 621.375 171.855469 L 590.375 155.828125 L 573.683594 163.671875 C 553.582031 173.5625 519.175781 193.335938 507.933594 201.863281 C 503.503906 205.273438 498.394531 208 497.03125 208 C 493.285156 208 492.945312 190.609375 496.691406 185.496094 C 499.078125 181.402344 536.550781 156.851562 539.617188 156.851562 C 540.636719 156.851562 551.539062 150.714844 564.144531 143.214844 C 588.671875 127.867188 590.714844 127.867188 616.605469 142.53125 C 625.125 146.964844 647.949219 159.582031 667.707031 169.808594 C 712.335938 193.679688 716.082031 197.769531 713.695312 219.59375 C 712.675781 228.800781 710.289062 238.347656 708.246094 240.734375 C 706.542969 243.121094 684.738281 256.761719 659.871094 271.421875 C 635.003906 286.085938 600.253906 306.542969 582.539062 317.113281 C 537.570312 344.050781 532.121094 346.4375 513.726562 347.460938 C 501.460938 348.144531 492.605469 345.757812 477.957031 338.253906 C 444.230469 321.207031 322.269531 248.917969 315.457031 242.097656 C 307.960938 234.9375 305.238281 204.929688 310.6875 192.65625 C 313.414062 187.199219 404.371094 129.914062 444.570312 108.773438 C 450.019531 105.703125 461.601562 99.226562 470.121094 94.453125 C 489.539062 82.859375 496.691406 82.859375 499.417969 93.769531 Z M 499.417969 93.769531 "/>
<path style=" stroke:none;fill-rule:nonzero;fill:rgb(0%,0%,0%);fill-opacity:1;" d="M 296.378906 300.746094 C 296.378906 320.867188 297.742188 327.34375 302.511719 331.4375 C 307.621094 335.867188 457.855469 424.523438 480.339844 436.800781 C 485.109375 439.1875 499.078125 441.234375 511.339844 441.234375 C 531.78125 441.234375 536.210938 439.867188 560.738281 425.886719 C 626.828125 387.699219 714.378906 335.867188 719.828125 331.4375 C 724.257812 327.34375 725.621094 320.867188 725.621094 301.769531 L 725.621094 277.21875 L 661.914062 315.070312 C 532.800781 392.132812 536.550781 390.085938 511.339844 390.085938 C 499.078125 390.085938 485.109375 388.039062 480.339844 385.652344 C 457.855469 373.378906 307.621094 284.722656 302.511719 280.289062 C 296.71875 275.515625 296.378906 276.539062 296.378906 300.746094 Z M 332.832031 312.339844 C 347.820312 320.523438 370.304688 333.824219 437.757812 373.378906 C 475.910156 395.539062 489.878906 400.65625 512.703125 400.316406 C 528.714844 400.316406 538.253906 397.929688 554.605469 389.746094 C 572.660156 380.539062 639.429688 342.007812 667.707031 324.277344 C 684.058594 314.046875 704.839844 303.476562 708.585938 303.476562 C 710.972656 303.476562 711.992188 307.90625 711.3125 314.046875 C 710.289062 326.320312 707.90625 328.027344 591.058594 395.539062 C 585.605469 398.609375 572.320312 406.453125 562.101562 412.589844 C 536.890625 427.59375 530.417969 429.640625 509.636719 429.980469 C 490.902344 430.664062 476.933594 424.867188 448.65625 405.769531 C 440.140625 400.316406 432.648438 395.539062 431.625 395.539062 C 429.921875 395.539062 364.171875 357.011719 329.765625 335.867188 C 312.730469 325.640625 310.007812 322.570312 310.007812 313.703125 C 310.007812 301.089844 312.390625 301.089844 332.832031 312.339844 Z M 332.832031 312.339844 "/>
<path style=" stroke:none;fill-rule:nonzero;fill:rgb(0%,0%,0%);fill-opacity:1;" d="M 297.0625 381.902344 L 298.082031 410.886719 L 390.0625 465.441406 L 482.042969 520 L 539.957031 520 L 631.9375 465.441406 L 723.917969 410.886719 L 724.9375 381.902344 C 725.621094 357.691406 725.28125 353.941406 721.53125 358.375 C 717.101562 363.828125 570.277344 451.804688 543.703125 464.761719 C 533.144531 469.875 524.96875 470.898438 506.230469 469.875 L 482.042969 468.511719 L 393.46875 416.339844 C 344.753906 387.699219 302.851562 361.441406 300.46875 358.375 C 296.71875 353.941406 296.378906 357.691406 297.0625 381.902344 Z M 343.734375 399.292969 C 359.742188 408.5 375.414062 417.703125 378.140625 419.410156 C 422.765625 447.03125 472.503906 474.308594 482.726562 477.035156 C 511 484.878906 546.429688 479.765625 568.230469 464.417969 C 576.75 458.28125 589.351562 450.78125 677.246094 399.632812 C 694.960938 389.746094 709.609375 381.902344 710.289062 382.582031 C 716.082031 388.378906 710.628906 409.179688 703.136719 409.179688 C 700.410156 409.179688 698.367188 410.542969 698.367188 412.25 C 698.367188 413.953125 695.640625 416 692.574219 417.363281 C 689.167969 418.386719 684.058594 420.773438 681.332031 422.480469 C 670.089844 429.980469 621.375 459.304688 616.605469 461.351562 C 613.882812 462.714844 607.066406 466.464844 601.277344 470.214844 C 547.109375 503.632812 529.738281 511.476562 512.363281 511.476562 C 490.902344 511.476562 477.957031 504.996094 380.867188 447.371094 C 331.46875 418.046875 312.730469 405.089844 310.6875 398.949219 C 307.621094 390.765625 308.644531 381.902344 312.390625 381.902344 C 313.414062 381.902344 327.378906 389.746094 343.734375 399.292969 Z M 343.734375 399.292969 "/>
<path style=" stroke:none;fill-rule:nonzero;fill:rgb(0%,0%,0%);fill-opacity:1;" d="M 526.328125 600.132812 C 518.835938 603.882812 508.957031 612.40625 504.1875 619.566406 C 496.691406 630.480469 495.671875 635.933594 495.671875 660.144531 C 495.671875 691.515625 500.097656 700.722656 521.21875 715.042969 C 534.164062 723.90625 560.738281 725.613281 582.878906 718.792969 L 596.167969 715.042969 L 596.167969 664.917969 L 574.023438 664.917969 C 556.648438 664.917969 551.878906 665.941406 551.878906 670.03125 C 551.878906 673.785156 555.96875 675.148438 568.914062 675.148438 L 585.945312 675.148438 L 585.945312 691.855469 C 585.945312 707.882812 585.605469 708.90625 575.046875 710.949219 C 543.703125 718.113281 520.878906 709.585938 510.660156 687.765625 C 497.714844 658.78125 507.253906 621.613281 531.441406 609.335938 C 543.363281 603.199219 566.527344 602.859375 585.265625 608.65625 C 590.714844 610.703125 592.761719 609.679688 592.761719 605.929688 C 592.761719 593.3125 547.792969 589.5625 526.328125 600.132812 Z M 526.328125 600.132812 "/>
<path style=" stroke:none;fill-rule:nonzero;fill:rgb(0%,0%,0%);fill-opacity:1;" d="M 236.082031 626.726562 C 231.992188 627.410156 226.882812 630.136719 224.839844 632.867188 C 219.390625 639.003906 214.621094 639.003906 214.621094 632.523438 C 214.621094 629.113281 211.214844 627.410156 204.398438 627.410156 L 194.179688 627.410156 L 194.179688 762.4375 L 206.445312 761.074219 L 219.046875 759.710938 L 217.003906 739.933594 L 214.960938 720.5 L 231.3125 722.203125 C 251.753906 723.90625 266.402344 717.089844 273.894531 701.0625 C 281.730469 684.695312 281.050781 655.710938 272.535156 641.730469 C 268.785156 635.933594 265.378906 630.820312 265.039062 630.820312 C 264.355469 630.820312 259.246094 629.457031 253.796875 628.09375 C 248.003906 626.726562 240.171875 626.046875 236.082031 626.726562 Z M 250.390625 649.574219 C 259.929688 658.78125 261.972656 678.558594 255.160156 693.5625 C 250.390625 703.789062 235.742188 710.269531 224.5 707.539062 C 216.664062 705.496094 216.324219 704.132812 216.664062 680.601562 C 217.34375 652.984375 218.707031 648.890625 229.609375 644.460938 C 240.171875 640.027344 241.53125 640.367188 250.390625 649.574219 Z M 250.390625 649.574219 "/>
<path style=" stroke:none;fill-rule:nonzero;fill:rgb(0%,0%,0%);fill-opacity:1;" d="M 324.65625 627.410156 C 301.488281 632.523438 291.609375 649.574219 293.65625 680.945312 C 295.699219 710.949219 304.554688 720.15625 334.535156 722.203125 C 361.449219 723.90625 375.074219 719.132812 372.347656 709.585938 C 370.304688 701.402344 370.644531 701.402344 353.269531 705.496094 C 336.578125 709.585938 322.269531 704.8125 317.160156 693.5625 C 310.007812 677.535156 311.371094 676.851562 344.074219 677.875 L 374.734375 678.898438 L 374.734375 668.328125 C 374.734375 640.707031 351.566406 621.613281 324.65625 627.410156 Z M 348.84375 648.550781 C 358.382812 662.191406 355.996094 664.917969 333.851562 664.917969 C 311.371094 664.917969 308.304688 661.507812 320.226562 648.550781 C 329.425781 639.003906 342.371094 639.003906 348.84375 648.550781 Z M 348.84375 648.550781 "/>
<path style=" stroke:none;fill-rule:nonzero;fill:rgb(0%,0%,0%);fill-opacity:1;" d="M 102.882812 636.957031 C 82.78125 655.710938 81.417969 693.5625 100.15625 711.972656 C 106.96875 718.792969 113.101562 721.179688 128.773438 722.203125 C 146.144531 723.566406 149.894531 722.542969 159.089844 714.703125 C 173.398438 702.765625 178.507812 688.785156 176.464844 667.644531 C 174.761719 652.644531 172.71875 648.210938 162.15625 638.664062 C 151.597656 628.773438 147.507812 627.410156 131.496094 627.410156 C 116.167969 627.410156 111.398438 628.773438 102.882812 636.957031 Z M 143.078125 644.460938 C 146.828125 646.503906 151.257812 654.347656 153.640625 662.191406 C 161.136719 690.832031 145.804688 714.019531 124.683594 705.835938 C 113.441406 701.746094 109.011719 692.539062 109.011719 673.441406 C 109.011719 649.234375 125.707031 635.253906 143.078125 644.460938 Z M 143.078125 644.460938 "/>
<path style=" stroke:none;fill-rule:nonzero;fill:rgb(0%,0%,0%);fill-opacity:1;" d="M 391.765625 675.148438 L 391.765625 722.886719 L 416.292969 722.886719 L 415.613281 691.171875 C 415.273438 674.125 415.273438 658.097656 415.273438 656.050781 C 415.613281 653.664062 421.0625 649.574219 427.535156 646.503906 C 436.394531 642.070312 441.164062 641.730469 446.273438 644.460938 C 452.40625 647.867188 453.085938 651.621094 453.085938 685.378906 L 453.085938 722.886719 L 477.957031 722.886719 L 475.570312 709.929688 C 474.546875 703.109375 473.527344 684.695312 473.527344 669.011719 C 473.527344 634.910156 468.417969 627.410156 445.25 627.410156 C 435.371094 627.410156 428.21875 629.457031 423.109375 634.230469 C 419.019531 637.980469 414.933594 641.050781 413.910156 641.050781 C 412.886719 641.050781 412.207031 637.980469 412.207031 634.230469 C 412.207031 628.773438 409.820312 627.410156 401.988281 627.410156 L 391.765625 627.410156 Z M 391.765625 675.148438 "/>
<path style=" stroke:none;fill-rule:nonzero;fill:rgb(0%,0%,0%);fill-opacity:1;" d="M 629.550781 629.796875 C 626.144531 630.480469 623.421875 633.546875 623.421875 636.617188 C 623.421875 640.367188 625.464844 641.390625 632.277344 639.683594 C 657.828125 633.207031 660.210938 633.207031 669.070312 642.070312 C 673.839844 647.1875 677.925781 655.03125 677.925781 659.804688 C 677.925781 667.988281 676.90625 668.328125 659.191406 668.328125 C 638.75 668.328125 622.058594 674.804688 618.652344 683.671875 C 614.5625 694.582031 616.605469 709.246094 623.421875 716.066406 C 632.957031 725.613281 656.804688 725.273438 669.070312 715.722656 L 677.925781 708.90625 L 677.925781 715.722656 C 677.925781 719.816406 679.96875 722.886719 683.035156 722.886719 C 687.125 722.886719 688.148438 716.746094 688.148438 687.082031 C 688.148438 649.574219 684.058594 633.886719 672.816406 629.457031 C 666.683594 627.070312 638.75 627.410156 629.550781 629.796875 Z M 677.246094 689.46875 C 676.222656 701.746094 674.859375 704.132812 662.9375 710.269531 C 642.496094 721.179688 623.078125 710.609375 627.847656 691.515625 C 630.574219 680.601562 641.132812 675.828125 661.914062 675.488281 L 678.265625 675.148438 Z M 677.246094 689.46875 "/>
<path style=" stroke:none;fill-rule:nonzero;fill:rgb(0%,0%,0%);fill-opacity:1;" d="M 713.355469 634.910156 C 714.378906 639.34375 715.398438 657.757812 715.398438 675.828125 C 715.398438 704.8125 716.421875 710.269531 722.214844 716.066406 C 731.410156 725.273438 753.554688 725.273438 766.839844 715.722656 L 776.71875 708.90625 L 776.71875 715.722656 C 776.71875 719.816406 779.105469 722.886719 781.828125 722.886719 C 786.257812 722.886719 786.941406 715.382812 786.941406 675.148438 C 786.941406 634.910156 786.257812 627.410156 781.828125 627.410156 C 777.742188 627.410156 776.71875 633.546875 776.71875 662.53125 C 776.71875 701.746094 775.015625 705.496094 753.554688 712.996094 C 744.699219 716.066406 740.949219 715.722656 734.136719 711.292969 C 725.960938 705.835938 725.621094 704.472656 725.621094 666.621094 C 725.621094 629.113281 725.28125 627.410156 718.464844 627.410156 C 712.675781 627.410156 711.652344 628.773438 713.355469 634.910156 Z M 713.355469 634.910156 "/>
<path style=" stroke:none;fill-rule:nonzero;fill:rgb(0%,0%,0%);fill-opacity:1;" d="M 814.191406 634.230469 C 806.015625 642.414062 805.335938 658.78125 812.832031 665.257812 C 815.898438 667.988281 826.117188 673.785156 835.996094 678.558594 C 850.984375 686.058594 853.371094 688.445312 853.371094 697.3125 C 853.371094 711.292969 839.0625 718.453125 821.347656 713.335938 C 812.488281 710.269531 808.742188 710.609375 806.699219 713.679688 C 802.953125 719.816406 810.785156 722.886719 830.546875 722.886719 C 845.195312 722.886719 850.304688 721.179688 856.777344 714.359375 C 874.152344 697.3125 865.632812 679.238281 833.953125 665.601562 C 820.324219 659.804688 817.601562 657.074219 817.601562 649.574219 C 817.601562 635.59375 834.632812 631.160156 856.4375 639.683594 C 859.84375 641.050781 861.886719 640.027344 861.886719 636.617188 C 861.886719 625.363281 825.09375 623.316406 814.191406 634.230469 Z M 814.191406 634.230469 "/>
<path style=" stroke:none;fill-rule:nonzero;fill:rgb(0%,0%,0%);fill-opacity:1;" d="M 883.007812 635.933594 C 869.722656 652.644531 873.46875 662.191406 899.019531 675.148438 C 924.230469 687.765625 928.65625 693.21875 923.886719 704.132812 C 919.460938 714.019531 902.085938 718.113281 888.117188 712.996094 C 875.855469 708.222656 875.511719 708.222656 875.511719 714.019531 C 875.511719 720.5 883.007812 722.886719 903.105469 722.886719 C 921.503906 722.886719 931.722656 716.066406 935.46875 700.722656 C 938.535156 688.445312 931.382812 679.921875 907.875 667.304688 C 884.710938 655.03125 881.304688 647.527344 894.25 639.003906 C 901.746094 634.230469 905.152344 633.886719 915.710938 636.957031 C 923.546875 639.34375 929.339844 639.683594 931.382812 637.640625 C 936.832031 632.183594 931.042969 629.457031 909.921875 628.09375 C 891.523438 626.726562 889.820312 627.410156 883.007812 635.933594 Z M 883.007812 635.933594 "/>
</g>
</svg>